<?xml version="1.0" standalone="no"?><!DOCTYPE svg PUBLIC "-//W3C//DTD SVG 1.1//EN" "http://www.w3.org/Graphics/SVG/1.1/DTD/svg11.dtd"><svg class="icon" height="512" viewBox="0 0 1024 1024" version="1.1" xmlns="http://www.w3.org/2000/svg"><path d="M580.993862 512.703011l293.827025-292.730041c18.656919-18.580171 21.935592-45.469588 7.355525-60.025095l-22.064528-22.038946c-14.579043-14.553461-41.572838-11.302417-60.205197 7.251148L506.258741 437.710017 223.425094 153.792689c-18.581194-18.656919-45.470611-21.934568-60.025095-7.341199l-22.038946 22.051225c-14.554484 14.59337-11.302417 41.573861 7.251148 60.20622L431.265746 512.418532 150.703839 791.948947c-18.657942 18.581194-21.935592 45.470611-7.329942 60.025095l22.038946 22.01234c14.605649 14.580067 41.572838 11.329023 60.205197-7.225565l280.381805-279.32473 289.38997 290.471604c18.579147 18.657942 45.469588 21.935592 60.023048 7.328919l22.013363-22.037922c14.579043-14.605649 11.329023-41.573861-7.226588-60.205197L580.993862 512.703011z" /></svg>